<svg width="50" height="51" viewBox="0 0 50 51" fill="none" xmlns="http://www.w3.org/2000/svg">
<path fill-rule="evenodd" clip-rule="evenodd" d="M17.2241 20.4224C17.6974 14.2397 22.864 9.37036 29.168 9.37036C35.6115 9.37036 40.8667 14.4577 41.1363 20.8349C44.8358 22.5874 47.3971 26.3551 47.3971 30.7245C47.3971 36.7651 42.5002 41.662 36.4596 41.662H13.543C7.50235 41.662 2.60547 36.7651 2.60547 30.7245C2.60547 24.6839 7.50235 19.787 13.543 19.787C14.8335 19.787 16.0732 20.0111 17.2241 20.4224Z" fill="white"/>
<path fill-rule="evenodd" clip-rule="evenodd" d="M17.2241 20.4224C17.6974 14.2397 22.864 9.37036 29.168 9.37036C35.6115 9.37036 40.8667 14.4577 41.1363 20.8349C44.8358 22.5874 47.3971 26.3551 47.3971 30.7245C47.3971 36.7651 42.5002 41.662 36.4596 41.662H13.543C7.50235 41.662 2.60547 36.7651 2.60547 30.7245C2.60547 24.6839 7.50235 19.787 13.543 19.787C14.8335 19.787 16.0732 20.0111 17.2241 20.4224Z" fill="url(#paint0_linear_10840_1047)"/>
<defs>
<linearGradient id="paint0_linear_10840_1047" x1="28.8095" y1="16.3329" x2="28.0496" y2="40.9823" gradientUnits="userSpaceOnUse">
<stop stop-color="#24D6F8"/>
<stop offset="1" stop-color="#50F2A5"/>
</linearGradient>
</defs>
</svg>
