<svg width="50" height="51" viewBox="0 0 50 51" fill="none" xmlns="http://www.w3.org/2000/svg">
<path d="M39.8793 11.0932C43.5631 14.793 45.8346 19.861 45.8346 25.4513C45.8346 31.108 43.5089 36.2299 39.7475 39.9406M10.418 40.0995C6.56096 36.3768 4.16797 31.1892 4.16797 25.4513C4.16797 19.7798 6.50592 14.6459 10.2847 10.9329M33.9281 17.3368C36.1384 19.4183 37.5013 22.2696 37.5013 25.4147C37.5013 28.5972 36.1058 31.4788 33.849 33.5665M16.2513 33.6559C13.9371 31.5615 12.5013 28.6429 12.5013 25.4147C12.5013 22.2239 13.9041 19.3355 16.1713 17.2466" stroke="white" stroke-width="5" stroke-linecap="round" stroke-linejoin="round"/>
<path d="M39.8793 11.0932C43.5631 14.793 45.8346 19.861 45.8346 25.4513C45.8346 31.108 43.5089 36.2299 39.7475 39.9406M10.418 40.0995C6.56096 36.3768 4.16797 31.1892 4.16797 25.4513C4.16797 19.7798 6.50592 14.6459 10.2847 10.9329M33.9281 17.3368C36.1384 19.4183 37.5013 22.2696 37.5013 25.4147C37.5013 28.5972 36.1058 31.4788 33.849 33.5665M16.2513 33.6559C13.9371 31.5615 12.5013 28.6429 12.5013 25.4147C12.5013 22.2239 13.9041 19.3355 16.1713 17.2466" stroke="url(#paint0_linear_10780_14621)" stroke-width="5" stroke-linecap="round" stroke-linejoin="round"/>
<circle cx="25" cy="25.5161" r="5" fill="#2CDBE9"/>
<defs>
<linearGradient id="paint0_linear_10780_14621" x1="28.5438" y1="17.2216" x2="27.8773" y2="39.4868" gradientUnits="userSpaceOnUse">
<stop stop-color="#24D6F8"/>
<stop offset="1" stop-color="#50F2A5"/>
</linearGradient>
</defs>
</svg>
