<svg width="22" height="19" viewBox="0 0 22 19" fill="none" xmlns="http://www.w3.org/2000/svg">
<path d="M21.2144 1.59567C21.3746 0.560057 20.39 -0.257362 19.4691 0.146931L1.12921 8.19911C0.468877 8.48903 0.517181 9.48932 1.20204 9.70738L4.98414 10.9118C5.70607 11.1417 6.48765 11.0228 7.11804 10.5873L15.6452 4.69618C15.9023 4.51849 16.1826 4.88415 15.9629 5.11056L9.82485 11.4388C9.22944 12.0528 9.3476 13.0931 10.0639 13.5422L16.936 17.8516C17.7068 18.3349 18.6983 17.8494 18.8425 16.9179L21.2144 1.59567Z" fill="#0F0F0F"/>
<path d="M21.2144 1.59567C21.3746 0.560057 20.39 -0.257362 19.4691 0.146931L1.12921 8.19911C0.468877 8.48903 0.517181 9.48932 1.20204 9.70738L4.98414 10.9118C5.70607 11.1417 6.48765 11.0228 7.11804 10.5873L15.6452 4.69618C15.9023 4.51849 16.1826 4.88415 15.9629 5.11056L9.82485 11.4388C9.22944 12.0528 9.3476 13.0931 10.0639 13.5422L16.936 17.8516C17.7068 18.3349 18.6983 17.8494 18.8425 16.9179L21.2144 1.59567Z" fill="white"/>
</svg>
