<svg width="138" height="121" viewBox="0 0 138 121" fill="none" xmlns="http://www.w3.org/2000/svg">
<path d="M137.403 10.9188C138.471 4.01464 131.907 -1.43482 125.768 1.26046L3.50201 54.9416C-0.900195 56.8745 -0.578166 63.5431 3.98758 64.9968L29.2016 73.0265C34.0144 74.5591 39.225 73.7662 43.4276 70.8631L100.275 31.5888C101.989 30.4042 103.858 32.8419 102.393 34.3513L61.473 76.5399C57.5036 80.6328 58.2913 87.5679 63.0664 90.5619L108.881 119.292C114.019 122.514 120.63 119.277 121.59 113.067L137.403 10.9188Z" fill="#0F0F0F"/>
<path d="M137.403 10.9188C138.471 4.01464 131.907 -1.43482 125.768 1.26046L3.50201 54.9416C-0.900195 56.8745 -0.578166 63.5431 3.98758 64.9968L29.2016 73.0265C34.0144 74.5591 39.225 73.7662 43.4276 70.8631L100.275 31.5888C101.989 30.4042 103.858 32.8419 102.393 34.3513L61.473 76.5399C57.5036 80.6328 58.2913 87.5679 63.0664 90.5619L108.881 119.292C114.019 122.514 120.63 119.277 121.59 113.067L137.403 10.9188Z" fill="url(#paint0_linear_10780_14770)"/>
<defs>
<linearGradient id="paint0_linear_10780_14770" x1="80.6065" y1="26.4314" x2="77.1805" y2="117.991" gradientUnits="userSpaceOnUse">
<stop stop-color="#24D6F8"/>
<stop offset="1" stop-color="#50F2A5"/>
</linearGradient>
</defs>
</svg>
