<svg width="20" height="19" viewBox="0 0 20 19" fill="none" xmlns="http://www.w3.org/2000/svg">
<path d="M8.57711 3.98556C9.87525 5.7102 10.9713 7.13049 11.0119 7.13049C11.0525 7.13049 12.4021 5.7102 13.9945 3.98556L16.9061 0.840637H18.5597L18.2046 1.21641C18.0017 1.42864 16.6829 2.85928 15.2728 4.39136C13.8626 5.92325 12.4829 7.41414 12.2086 7.68846L11.722 8.20585L15.5264 13.2682C17.6162 16.058 19.3307 18.3707 19.3307 18.4121C19.3307 18.4628 18.0833 18.4928 16.5709 18.4928L13.8017 18.4827L11.2249 15.0334C9.44957 12.6493 8.61769 11.6241 8.53653 11.6856C8.47566 11.7363 7.03467 13.2889 5.33073 15.1348L2.23653 18.4928H1.45496C1.01914 18.4928 0.664062 18.4721 0.664062 18.4421C0.664062 18.4121 2.27711 16.646 4.24482 14.5261C6.2034 12.4059 7.82658 10.6305 7.84627 10.6005C7.85682 10.5591 6.24377 8.35803 4.26551 5.7102C2.28725 3.07252 0.664062 0.891362 0.664062 0.870667C0.664062 0.850985 1.91148 0.840637 3.44377 0.840637H6.22308L8.57711 3.98556Z" fill="white"/>
<path d="M3.17027 2.20006C3.21064 2.27107 5.76655 5.70006 8.83073 9.7982L14.4104 17.2651L15.6579 17.2754C16.4291 17.2754 16.8959 17.2348 16.8752 17.174C16.8659 17.1232 14.3193 13.6947 11.2355 9.56527L5.61438 2.05803H4.35682C3.31229 2.05803 3.09885 2.07872 3.17027 2.20006Z" fill="white"/>
</svg>
