<svg width="128" height="121" viewBox="0 0 128 121" fill="none" xmlns="http://www.w3.org/2000/svg">
<path d="M54.2736 21.9369C63.0984 33.6611 70.5494 43.3162 70.8253 43.3162C71.1012 43.3162 80.2763 33.6611 91.1011 21.9369L110.894 0.557617H122.136L119.722 3.1121C118.343 4.55486 109.377 14.2804 99.7908 24.6955C90.2046 35.1093 80.8253 45.2445 78.9605 47.1093L75.6529 50.6266L101.515 85.0404C115.722 104.006 127.377 119.727 127.377 120.009C127.377 120.353 118.897 120.558 108.616 120.558L89.7908 120.489L72.2736 97.0404C60.2046 80.8335 54.5494 73.8638 53.9977 74.2817C53.5839 74.6266 43.788 85.1811 32.2046 97.73L11.1701 120.558H5.85702C2.89426 120.558 0.480469 120.417 0.480469 120.213C0.480469 120.009 11.446 108.003 24.8225 93.5921C38.137 79.1783 49.1715 67.1093 49.3053 66.9052C49.377 66.6238 38.4115 51.6611 24.9632 33.6611C11.5149 15.73 0.480469 0.902447 0.480469 0.761757C0.480469 0.627964 8.96047 0.557617 19.377 0.557617H38.2708L54.2736 21.9369Z" fill="#0F0F0F"/>
<path d="M54.2736 21.9369C63.0984 33.6611 70.5494 43.3162 70.8253 43.3162C71.1012 43.3162 80.2763 33.6611 91.1011 21.9369L110.894 0.557617H122.136L119.722 3.1121C118.343 4.55486 109.377 14.2804 99.7908 24.6955C90.2046 35.1093 80.8253 45.2445 78.9605 47.1093L75.6529 50.6266L101.515 85.0404C115.722 104.006 127.377 119.727 127.377 120.009C127.377 120.353 118.897 120.558 108.616 120.558L89.7908 120.489L72.2736 97.0404C60.2046 80.8335 54.5494 73.8638 53.9977 74.2817C53.5839 74.6266 43.788 85.1811 32.2046 97.73L11.1701 120.558H5.85702C2.89426 120.558 0.480469 120.417 0.480469 120.213C0.480469 120.009 11.446 108.003 24.8225 93.5921C38.137 79.1783 49.1715 67.1093 49.3053 66.9052C49.377 66.6238 38.4115 51.6611 24.9632 33.6611C11.5149 15.73 0.480469 0.902447 0.480469 0.761757C0.480469 0.627964 8.96047 0.557617 19.377 0.557617H38.2708L54.2736 21.9369Z" fill="url(#paint0_linear_10780_14768)"/>
<path d="M17.5177 9.799C17.7922 10.2818 35.1674 33.5921 55.9977 61.4514L93.9287 112.211L102.409 112.282C107.651 112.282 110.825 112.006 110.685 111.592C110.621 111.247 93.3094 87.9397 72.3453 59.868L34.1329 8.83348H25.5839C18.4832 8.83348 17.0322 8.97417 17.5177 9.799Z" fill="#0F0F0F"/>
<path d="M17.5177 9.799C17.7922 10.2818 35.1674 33.5921 55.9977 61.4514L93.9287 112.211L102.409 112.282C107.651 112.282 110.825 112.006 110.685 111.592C110.621 111.247 93.3094 87.9397 72.3453 59.868L34.1329 8.83348H25.5839C18.4832 8.83348 17.0322 8.97417 17.5177 9.799Z" fill="url(#paint1_linear_10780_14768)"/>
<defs>
<linearGradient id="paint0_linear_10780_14768" x1="74.7176" y1="26.4314" x2="71.0158" y2="117.969" gradientUnits="userSpaceOnUse">
<stop stop-color="#24D6F8"/>
<stop offset="1" stop-color="#50F2A5"/>
</linearGradient>
<linearGradient id="paint1_linear_10780_14768" x1="74.7176" y1="26.4314" x2="71.0158" y2="117.969" gradientUnits="userSpaceOnUse">
<stop stop-color="#24D6F8"/>
<stop offset="1" stop-color="#50F2A5"/>
</linearGradient>
</defs>
</svg>
